<?xml version="1.0" encoding="utf-8"?>
<!-- Generator: Adobe Illustrator 22.0.1, SVG Export Plug-In . SVG Version: 6.00 Build 0)  -->
<svg version="1.1" id="Layer_1" xmlns="http://www.w3.org/2000/svg" xmlns:xlink="http://www.w3.org/1999/xlink" x="0px" y="0px"
	 viewBox="0 0 78.1 75.7" enable-background="new 0 0 78.1 75.7" xml:space="preserve">
<circle fill="#F5C88E" cx="70.4" cy="44.8" r="7.7"/>
<circle fill="#F5D5A4" cx="38.9" cy="44.9" r="30.8"/>
<path fill="#F5C88E" d="M15.6,44.7c0-15.7,11.7-28.6,26.9-30.6c-1.3-0.2-2.6-0.3-4-0.3c-17,0-30.9,13.8-30.9,30.9
	c0,17,13.8,30.9,30.9,30.9c1.3,0,2.7-0.1,4-0.3C27.3,73.4,15.6,60.4,15.6,44.7z"/>
<circle fill="#F5C88E" cx="7.7" cy="43.8" r="7.7"/>
<circle fill="#151C19" cx="26.1" cy="46.6" r="4.9"/>
<circle fill="#151C19" cx="51" cy="46.6" r="4.9"/>
<path fill="#151C19" d="M49.6,59.5c0,5.9-4.8,10.7-10.7,10.7s-10.7-4.8-10.7-10.7"/>
<path fill="#FCFCFC" d="M35.5,59.5v2c0,0.9-0.7,1.5-1.5,1.5h0c-0.9,0-1.5-0.7-1.5-1.5v-2"/>
<path fill="#FCFCFC" d="M44.6,59.5v2c0,0.9-0.7,1.5-1.5,1.5h0c-0.9,0-1.5-0.7-1.5-1.5v-2"/>
<path fill="#D81E1E" d="M38.9,64.3c-2.6,0-4.9,1.6-5.8,4c1.7,1.2,3.8,1.9,6.1,1.9c2.1,0,4-0.6,5.7-1.6
	C43.9,66.1,41.6,64.3,38.9,64.3z"/>
<path fill="#F5C88E" d="M42.6,53.2c0,2-1.7,3.7-3.7,3.7s-3.7-1.7-3.7-3.7"/>
<path fill="#FCFCFC" d="M26.1,46.6l2.7-1l1.8-0.7c-0.4-1-1.1-1.8-1.9-2.4l-1.1,1.7L26.1,46.6z"/>
<path fill="#FCFCFC" d="M51,46.6l2.7-1l1.8-0.7c-0.4-1-1.1-1.8-1.9-2.4l-1.1,1.7L51,46.6z"/>
<circle fill="#F37736" cx="47.5" cy="11.5" r="7"/>
<path fill="#DB6633" d="M16.2,39.3c-5.1,0-9.3-4.1-9.3-9.3s4.1-9.3,9.3-9.3"/>
<path fill="#DB6633" d="M48.9,13.5c-0.4,0-0.9,0-1.3,0.1C44.9,6.8,38.4,2,30.6,2c-10.1,0-18.3,8.2-18.3,18.3s8.2,18.3,18.3,18.3
	c3.5,0,6.8-1,9.6-2.7c2.3,2.1,5.3,3.4,8.7,3.4c7.1,0,12.8-5.7,12.8-12.8C61.7,19.3,56,13.5,48.9,13.5z"/>
<path fill="#F37736" d="M48.9,11.5c-0.4,0-0.9,0-1.3,0.1C44.9,4.8,38.4,0,30.6,0C20.5,0,12.4,8.2,12.4,18.3s8.2,18.3,18.3,18.3
	c3.5,0,6.8-1,9.6-2.7c2.3,2.1,5.3,3.4,8.7,3.4c7.1,0,12.8-5.7,12.8-12.8C61.7,17.3,56,11.5,48.9,11.5z"/>
</svg>
