<?xml version="1.0" encoding="utf-8"?>
<!-- Generator: Adobe Illustrator 22.0.1, SVG Export Plug-In . SVG Version: 6.00 Build 0)  -->
<svg version="1.1" id="Layer_1" xmlns="http://www.w3.org/2000/svg" xmlns:xlink="http://www.w3.org/1999/xlink" x="0px" y="0px"
	 viewBox="0 0 78.1 62.2" enable-background="new 0 0 78.1 62.2" xml:space="preserve">
<circle fill="#FE98A6" cx="39.8" cy="30.2" r="28.9"/>
<circle fill="#007650" cx="70.4" cy="31" r="7.7"/>
<path fill="#35A67C" d="M58.6,25.4c-10.2,0-17.4-7.2-17.4-17.4c0-2.8,1.6-5.4,2.7-7.8c-1.1-0.1-4.2-0.2-5.3-0.2
	C21.6,0.1,7.8,13.9,7.8,31c0,17,13.8,30.9,30.9,30.9c17,0,30.9-13.8,30.9-30.9c0-2.6-0.3-6.1-0.9-8.5C65.7,24.3,62.3,25.4,58.6,25.4
	z"/>
<path fill="#007650" d="M15.6,30.9c0-15.7,11.7-28.6,26.9-30.6c-1.3-0.2-2.6-0.3-4-0.3C21.5,0,7.7,13.8,7.7,30.9
	c0,17,13.8,30.9,30.9,30.9c1.3,0,2.7-0.1,4-0.3C27.3,59.5,15.6,46.6,15.6,30.9z"/>
<circle fill="#007650" cx="7.7" cy="30" r="7.7"/>
<circle fill="#ADEACD" stroke="#007650" stroke-width="2" stroke-miterlimit="10" cx="26.1" cy="32.8" r="4.9"/>
<circle fill="#ADEACD" stroke="#007650" stroke-width="2" stroke-miterlimit="10" cx="51" cy="32.8" r="4.9"/>
<path fill="#8E2633" d="M46,54.9C46,54.9,46,54.9,46,54.9c0-1.2-1-2.2-2.1-2.2h-8.4c-1.2,0-2.1,1-2.1,2.1s1,2.1,2.1,2.1h4.2v1.9
	c0,1.8,1.5,3.3,3.3,3.3c1.8,0,3.3-1.5,3.3-3.3V56C46.2,55.6,46.1,55.3,46,54.9z"/>
<path fill="#151C19" d="M44.9,55.1H32.2c-2.5,0-4.5-2-4.5-4.5v0c0-2.5,2-4.5,4.5-4.5h12.7c2.5,0,4.5,2,4.5,4.5v0
	C49.3,53.1,47.3,55.1,44.9,55.1z"/>
<path fill="#F7F7B5" d="M35.1,46.2v2c0,0.9-0.7,1.5-1.5,1.5h0c-0.9,0-1.5-0.7-1.5-1.5v-2"/>
<path fill="#F7F7B5" d="M42.3,55.1v-1c0-0.9,0.7-1.5,1.5-1.5h0c0.9,0,1.5,0.7,1.5,1.5v1"/>
<path fill="#F7F7B5" d="M43.8,46.2l0.3,1.7c0.1,0.8-0.4,1.6-1.3,1.8h0c-0.8,0.1-1.6-0.4-1.8-1.3l-0.3-2c0-0.1,0-0.1,0-0.2"/>
<path fill="#F7F7B5" d="M35.1,55.1c-0.4-0.6-0.2-1.5,0.3-2l0,0c0.7-0.5,1.6-0.5,2.2,0.2l1.3,1.6c0.1,0.1,0.1,0.1,0.1,0.2"/>
</svg>
